<?xml version="1.0" encoding="UTF-8"?>
<svg id="Layer_1" xmlns="http://www.w3.org/2000/svg" viewBox="0 0 965.16 180.46">
  <defs>
    <style>
      .cls-1 {
        fill: #fff;
      }

      .cls-2 {
        fill: #52b1ff;
      }
    </style>
  </defs>
  <path class="cls-1" d="M70.01,161.84c-31.24,0-56.65-25.41-56.65-56.65s25.41-56.65,56.65-56.65c17.75,0,34.13,8.08,44.95,22.17,2.02,2.63,1.52,6.39-1.1,8.41-2.62,2.02-6.39,1.52-8.41-1.1-8.53-11.11-21.45-17.48-35.43-17.48-24.62,0-44.65,20.03-44.65,44.65s20.03,44.65,44.65,44.65c15.11,0,28.9-7.43,37.21-19.97v-18.68h-40.61c-3.31,0-6-2.69-6-6s2.69-6,6-6h52.61v34.12l-.88,1.44c-10.39,16.96-28.46,27.09-48.33,27.09Z"/>
  <path class="cls-2" d="M599.9,161.84c-23.64,0-42.86-19.23-42.86-42.86V54.55c0-3.31,2.69-6,6-6s6,2.69,6,6v64.43c0,17.02,13.85,30.86,30.86,30.86s30.86-13.85,30.86-30.86V54.55c0-3.31,2.69-6,6-6s6,2.69,6,6v64.43c0,23.64-19.23,42.86-42.86,42.86Z"/>
  <path class="cls-1" d="M661.32,161.84c-3.31,0-6-2.69-6-6V54.55c0-3.31,2.69-6,6-6h37.14c23.63,0,42.86,19.23,42.86,42.86s-19.23,42.86-42.86,42.86l-31.14-.32v21.88c0,3.31-2.69,6-6,6ZM667.32,121.96l31.2.32c16.96,0,30.8-13.85,30.8-30.86s-13.84-30.86-30.86-30.86h-31.14v61.41Z"/>
  <path class="cls-1" d="M194.76,161.84h-56.14c-3.31,0-6-2.69-6-6V54.55c0-3.31,2.69-6,6-6s6,2.69,6,6v95.29h50.14c3.31,0,6,2.69,6,6s-2.69,6-6,6Z"/>
  <path class="cls-1" d="M923.47,161.84c-3.31,0-6-2.69-6-6V54.55c0-3.31,2.69-6,6-6s6,2.69,6,6v101.29c0,3.31-2.69,6-6,6Z"/>
  <path class="cls-1" d="M853.58,124.92h-38.85c-3.31,0-6-2.69-6-6s2.69-6,6-6h38.85c3.31,0,6,2.69,6,6s-2.69,6-6,6Z"/>
  <path class="cls-1" d="M796.29,161.84c-.9,0-1.82-.2-2.68-.63-2.96-1.48-4.17-5.08-2.69-8.05l50.58-101.29c1.48-2.96,5.08-4.17,8.05-2.69,2.96,1.48,4.17,5.08,2.69,8.05l-50.58,101.29c-1.05,2.1-3.17,3.32-5.37,3.32Z"/>
  <path class="cls-1" d="M897.47,161.84c-2.2,0-4.32-1.22-5.37-3.32l-50.58-101.29c-1.48-2.96-.28-6.57,2.69-8.05,2.96-1.48,6.57-.28,8.05,2.69l50.58,101.29c1.48,2.96.28,6.57-2.69,8.05-.86.43-1.78.63-2.68.63Z"/>
  <path class="cls-1" d="M372.89,161.84c-.11,0-.21,0-.32,0-2.59-.14-4.79-1.92-5.47-4.42l-27.44-101.29c-.87-3.2,1.02-6.49,4.22-7.36,3.2-.87,6.5,1.02,7.36,4.22l22.68,83.7,32.85-84.31c.9-2.3,3.11-3.82,5.58-3.82h0c2.47,0,4.68,1.51,5.58,3.81l33.12,84.4,22.7-83.78c.87-3.2,4.16-5.09,7.36-4.22,3.2.87,5.09,4.16,4.22,7.36l-27.44,101.29c-.68,2.5-2.88,4.28-5.46,4.42-2.58.13-4.97-1.39-5.91-3.8l-34.15-87.01-33.89,87c-.9,2.31-3.13,3.82-5.59,3.82Z"/>
  <path class="cls-2" d="M540.36,61.77c-1.09,0-2.19-.3-3.18-.92-2.81-1.76-3.66-5.46-1.9-8.27l22.98-36.7c1.1-1.75,3.02-2.82,5.08-2.82h.01c2.07,0,4,1.08,5.09,2.84l22.35,36.07c1.75,2.82.88,6.52-1.94,8.26-2.82,1.75-6.52.88-8.26-1.94l-17.28-27.89-17.87,28.54c-1.14,1.82-3.09,2.82-5.09,2.82Z"/>
  <path class="cls-1" d="M255.27,154.79c-48.08,0-68.99-29.04-77.91-41.44-1.09-1.51-2.02-2.81-2.76-3.72-3.53-4.36-3.83-10.31-.72-14.47,6.23-8.36,33.68-39.56,54.06-39.56,14.07,0,19.81,5.75,23.61,9.55,2.25,2.25,2.74,2.59,3.73,2.59s1.48-.34,3.73-2.59c3.8-3.8,9.54-9.55,23.61-9.55,20.38,0,47.83,31.2,54.06,39.56,3.11,4.17,2.81,10.12-.73,14.47-.73.91-1.67,2.21-2.76,3.72-8.93,12.4-29.83,41.44-77.91,41.44ZM183.81,101.91c.03.05.06.11.11.16.95,1.17,1.99,2.61,3.18,4.27,8.52,11.83,26.24,36.45,68.17,36.45s59.66-24.62,68.17-36.45c1.2-1.66,2.23-3.09,3.18-4.27.04-.05.08-.11.11-.16-9.26-12.22-32.1-34.31-44.12-34.31-9.1,0-12.02,2.93-15.12,6.03-2.72,2.72-6.1,6.11-12.22,6.11s-9.5-3.39-12.22-6.11c-3.1-3.1-6.02-6.03-15.12-6.03-12.02,0-34.86,22.09-44.12,34.31Z"/>
  <path class="cls-1" d="M229.2,109.82h-29.94c-3.31,0-6-2.69-6-6s2.69-6,6-6h29.94c2.66,0,5.78-2.09,9.09-4.31,4.7-3.15,10.02-6.71,16.98-6.71,3.31,0,6,2.69,6,6s-2.69,6-6,6-6.71,2.28-10.3,4.68c-4.43,2.97-9.46,6.34-15.77,6.34Z"/>
  <path class="cls-1" d="M255.27,120.85c-6.96,0-12.29-3.57-16.98-6.71-3.31-2.22-6.43-4.31-9.09-4.31h-29.94c-3.31,0-6-2.69-6-6s2.69-6,6-6h29.94c6.31,0,11.34,3.37,15.77,6.34,3.59,2.41,6.99,4.68,10.3,4.68s6,2.69,6,6-2.69,6-6,6Z"/>
  <path class="cls-1" d="M311.29,109.82h-29.94c-6.31,0-11.34-3.37-15.77-6.34-3.59-2.41-6.99-4.68-10.3-4.68s-6-2.69-6-6,2.69-6,6-6c6.96,0,12.29,3.57,16.98,6.71,3.31,2.22,6.43,4.31,9.09,4.31h29.94c3.31,0,6,2.69,6,6s-2.69,6-6,6Z"/>
  <path class="cls-1" d="M255.27,120.85c-3.31,0-6-2.69-6-6s2.69-6,6-6,6.71-2.28,10.3-4.68c4.44-2.97,9.46-6.34,15.77-6.34h29.94c3.31,0,6,2.69,6,6s-2.69,6-6,6h-29.94c-2.66,0-5.79,2.09-9.09,4.31-4.7,3.15-10.02,6.71-16.98,6.71Z"/>
</svg>