<?xml version="1.0" encoding="UTF-8"?>
<svg id="Layer_2" xmlns="http://www.w3.org/2000/svg" viewBox="0 0 4222.81 3168.24">
  <defs>
    <style>
      .cls-1 {
        fill: #1d1d1b;
      }
    </style>
  </defs>
  <path class="cls-1" d="M8.17,3127.42c6.86,5.54,15.97,7.34,24.76,8.12,7.27.64,14.59.71,21.88.19-.24,4.09,2.01,9.26,3.53,13.06.69,1.73,1.59,3.44,3.05,4.59,1.46,1.15,3.34,1.63,5.18,1.92,4.6.74,9.36.52,13.87-.62,1.87,4.87,8.09,7.75,13.08,9.25,4.99,1.5,10.34,1.3,15.51.64,6.54-.83,12.98-2.38,19.18-4.6,6.91,7.7,17.69,9.18,27.95,7.81,10.26-1.37,23.12-5.7,30.12-13.32,6.3,6.47,18.22,8.63,27.18,9.7,14.01,1.68,28.2,1.93,42.26.76,26.47-3.84,48.68-8.01,69.83-15.74,44.16-16.13,93.88-26.15,144.9-33.58,30.15-4.39,50.77-7.14,93.87-4.76,19.77,1.09,42.44,4.39,62.12,6.53,54.39,5.9,114.15,6.86,163.77-16.2,4.44-2.06,9.89-4.08,14.49-7.18,8.62-5.81,15.92-15.04,19.5-24.8,4.01-10.92,3.9-22.86,3.75-34.5-.34-25.15.57-54.7.96-79.85.21-13.24,1.81-27.9,4.17-40.92,3.85-21.19,15.57-42.33,31.54-56.78,7.96-7.2,17.03-13.04,26.1-18.78,63.33-40.09,122.71-84.38,185.74-124.95,60.07-38.66,113.18-83.45,175.92-117.59,134.86-73.38,247.18-165.58,337.92-307.23,28.31-44.2,60.35-90.08,84.81-136.53,1.92-3.65,6.17-5.15,10.28-5.43,4.12-.29,8.17,1.04,12,2.59,15.14,6.09,28.59,15.63,41.89,25.09,75.24,53.49,133.9,130.06,187.1,205.5,80.19,113.71,168.87,221.02,265.42,321.21,77.72,80.64,157.47,151.26,243.84,222.56,61.62,50.88,140.64,81.02,219.43,94.39,78.78,13.38,159.82,9.54,238.51-4.41,36.43-6.46,74.02-24.88,106.81-55.55,39.86-37.29,65.15-93.49,78.62-146.39,13.47-52.9,15.57-108.17,11.86-162.63-4.86-71.32,3.1-138.02,8.63-209.3,5.77-74.4,10.31-145.83,9.1-220.44-1.3-80.4,13.43-158.16,35.98-235.35,25.34-86.73,69.73-173.98,121.32-248.15,15.11-21.72,30.49-48.37,45.27-70.32,3.8,62.4,11.22,136,13.81,198.45,2.16,51.95,11.41,108.24,12.78,160.21.53,20.1-2.21,42.48.38,62.42,5.62,43.27,18.5,78.46,35.19,115.94,28.32,63.6,47.64,152.7,74.85,226.63,28.61,77.72,58.23,152.92,84.84,231.34,19.12,56.36,27.97,111.95,41.78,169.84,8.94,37.5,24.08,72.03,40.89,106.72,7.7,15.9,22.69,28.16,38.58,35.89,6.46,3.14,13.44,5.06,20.41,6.79,20.62,5.13,41.81,8.83,63.03,7.77,21.38-1.06,46.91-.01,68.3-.88,12.22-.5,25.85-.19,38.05.7,10.49-1.23,22.81,4.55,32.85,7.86,22.03,7.26,45.51,8.57,68.67,9.83,11.52.62,23.74,1.12,35.27,1.44,3.16.09,6.41.13,9.38-.96,4.76-1.74,8.09-6.09,10.34-10.64,1.83-3.69,3.14-7.91,2.14-11.91-.95-3.79-3.82-6.77-6.71-9.4-5.33-4.86-11.12-9.2-17.27-12.97,13.87-.13,29.15-1.2,43.02-1.33,17.16.52,35.73.77,52.88,1.29,22.57.68,46.52,3.06,69.08,4.01,11.14.47,24.96.06,36.09-.39,5.53-.22,11.27-.66,16.08-3.4,4.8-2.75,8.36-8.47,6.85-13.79,5.81.83,13.47-1.22,17.2-5.75,3.73-4.53,3.96-11.94-.27-16.02-2.32-2.24-5.53-3.24-8.62-4.17-5.91-1.79-11.83-3.57-17.74-5.36-13.8-4.17-28.43-7.17-42.26-11.23-6.61-1.94-15.33-3.37-22.14-4.46-18.98-3.04-39.85-7.94-58.28-13.42-9.13-2.72-21.06-4.46-30.55-5.21-26.96-2.13-55.57-2.77-82.55-4.56-18.05-1.2-35.71-4.11-53.38-8.01-12.63-2.78-26.75-5.06-39.66-5.72-8.87-.45-18.15-1.77-26.96-2.8-25-2.93-49.5-7.71-74.59-9.78-11.72-.97-23.18-7.33-30.61-16.45-2.86-3.51-5.18-7.42-7.46-11.33-2.46-4.22-4.92-8.54-5.98-13.31-5.72-25.57-11.23-50.79-16.16-76.52-15.38-80.38-25.96-157.69-33.83-239.15-1.08-11.14-1.54-22.89-2.27-34.06-2.64-40.47-6.5-80.87-11.56-121.11-7.61-60.47-15.04-119.97-27.15-179.7-8.5-41.91-20.54-80.12-36.48-119.8-14.5-36.09-22.08-76.51-23.74-115.37l23.46-109.45c12.35,14.32,19.84,32.75,20.99,51.62,1.86,30.41-12.2,59.95-11.57,90.41.53,25.65,10.8,53.67,29.84,70.87-8.14-19.95-16.42-40.62-15.9-62.16.38-15.78,5.49-31,9.57-46.25,7.67-28.67,12.73-60.22,10-89.77,3.4,25.23,9.51,49.94,22.67,71.73,14.79,24.47,20.14,54.49,14.71,82.57-2.85,14.74-8.51,28.81-11.67,43.49-7.59,35.36.34,73.78,21.32,103.24-13.99-34.3-9.09-73.77,3.77-108.51,10.76-29.08,28.38-61.3,18.02-90.53,18.92,14.18,22.52,41.34,19.17,64.75-3.34,23.41-11.99,46.2-11.46,69.84.89,39.86,31.2,80.33,20.66,118.78,14.18-32.36.51-69.38-.92-104.67-.71-17.56,1.72-35.24,7.15-51.96,7.2-22.16,19.79-43.94,17-67.07-1.66-13.74-8.72-26.51-9.4-40.33-.69-13.82,9.56-30.1,23.17-27.62,12.79,2.33,17.27,18.31,17.61,31.3.58,21.76-2.57,43.74-12.09,63.32-17.01,34.97-20.16,76.45-8.62,113.58,5.95,19.14,15.64,37.26,18.44,57.11,4.43,31.44-11.23,63.26-24.27,92.21,27.08-29.91,39.78-72.29,33.63-112.17-3.95-25.62-15.23-50.76-11.71-76.44,3.76-27.47,23.5-49.5,39.09-72.42,15.59-22.92,32.24-61.03,19.55-85.67,18.96,18.99,27.23,48.02,21.1,74.15-3.28,14-10.28,26.8-16.41,39.81-8.47,17.96-15.46,37-16.64,56.82-1.18,19.82,3.06,40.6,16.48,55.24-14.71-37.9-8.62-83.16,15.57-115.83,7.3-9.85,16.19-18.76,21.15-29.97,17.74-40.13-20.31-90.39-.07-129.32-1.94,26.35,24.65,45.69,32.56,70.9,7.23,23.03-1.94,47.57-9.44,70.52-16.44,50.3-18.42,108.14,2.28,156.84-17.34-57.26-2.88-124.76,34.97-171.1-7.67,19.69-5.36,41.86-.4,62.41,4.96,20.54,12.45,40.56,14.97,61.55,5.22,43.52-15.45,87-49.14,115.04,38.29-18.9,64.96-59.43,67.17-102.07,2.13-41.17-16.74-82.56-7.83-122.81,8.85-39.98,42.7-68.83,64-103.81,41.31-67.84,34.16-175.1,2.61-247.99,10.33,20.38,20.67,40.77,31,61.15,7.35,14.5,14.75,29.11,19.22,44.74,4.41,15.4,5.91,31.5,6.17,47.51.85,51.99-14.23,104.99-37.97,151.26,60.7-73.06,77.11-180.24,41.03-268.11-12.9-31.42-31.91-60.44-40.85-93.21-19.39-71.06,10.14-151.38,40.22-218.62-1.43,30.59-2.86,61.39,1.27,91.74,4.59,33.72,15.95,66.18,21.55,99.75,5.6,33.57,8.53,75.29-9.36,104.24,15.63-19.73,24.99-44.35,26.43-69.48,1.93-33.84-10.06-66.76-14.92-100.3-8.25-56.97,3.27-106.5,17.86-162.18,17.39-66.37,34.93-134.39,28.6-202.7-4.6-49.61-21.6-97.09-36.76-144.55-25.16-78.78-41.87-161.38-57.34-242.62,4.14-8.34,7.83-16.91,11.03-25.65,5.64-15.38,7.36-33.26,6.57-49.62-.48-9.87-.58-19.75-.94-29.62-.74-20.62,4.33-43.03,7.69-63.4,1.73-10.47,2.87-25.45-1.07-35.3-3.94-9.86-10.27-18.55-16.68-27.01-15.27-20.15-27.32-43.13-38.17-65.97-16.4-34.54-33.82-68.74-56.23-99.72-6.99-9.67-13-19.52-19.25-29.69-5.42-8.81-11.7-16.58-18.64-24.24-4.87-5.37-10.56-6.01-15.88-10.94-3.37-3.12-5.77-7.14-8.83-10.57-5.89-6.62-13.97-10.81-21.85-14.85-23.72-12.17-47.76-23.64-73.12-31.89-64.27-20.91-124.41-53.69-186.48-80.42-126.29-54.39-253.8-100.94-388.5-128.52-21.5-4.4-43.92-8.03-65.35-12.75-11.77-2.59-25.04-3.48-36.39.56-14.21,5.05-24.15,17.85-31.75,30.87-4.35,7.45-7.83,15.7-11.69,23.41-8.19,16.36-16.97,33.83-25.58,49.97-9.57,17.93-16.04,39.93-20.55,59.75-9.92,43.59-22.39,89-28.56,133.28-20.51,147.22-31.5,293.79-22.01,442.13,4.1,64.15-.23,135.09-8.01,198.9-6.94,8.52-12.73,16.56-20.48,24.34-25.37,25.46-49.31,53.49-76.94,76.49-58.52,48.7-128.39,79.29-192.21,120.81-24.48,15.92-52.18,31.62-71.6,53.43-34.8,39.09-52.3,91.5-55.75,143.72-3.46,52.22,6.25,104.53,20.58,154.87,9.6,33.74,3.48,70.36-3.97,104.65-4.09,18.81-13.42,33.89-18.93,52.34-7.66,25.67-14.14,44.91-15.84,71.64-.74,11.66-.07,23.35.61,35.01,1.53,26.4,3.06,52.8,4.59,79.2,3.41,58.71,5.04,123.32-8.83,180.47-6.54,26.94-16.53,52.88-25.53,79.1-13.62,39.68-24.98,80.14-34.03,121.11-53.14-52.43-110.52-102.19-169.51-151.23-101.47-84.35-216.3-172.24-325.76-245.91-57.29-38.55-119.6-79.65-178.66-115.43-43.7-26.48-94.89-39.48-145.72-44.76-47.63-4.96-95.47,22.56-124.79,60.41-22.45,28.97-50.77,54.67-77.41,79.83-32.86,31.02-62.24,66.68-87.17,104.36-45.51,68.81-104.17,123.47-159.77,184.41-78.48,86.01-150.62,173.3-216.08,256.51-73.63,93.6-142.43,167.12-231.66,245.99-57.96,51.23-126.77,93.99-190.02,138.54-23.93,16.85-51.44,32.17-75.63,48.65-27.1,18.47-57.99,28.69-86.87,44.23-44.95,24.18-93.48,44.88-135.64,73.65-22.71,15.5-48.32,29-72.1,42.8-5.37,3.11-11.63,6.66-17.27,9.26-10.27,4.74-20.75,12.05-29.34,19.4-12.69,10.85-27.56,16.79-41.25,26.34-15.58.43-29.6,2.72-44.93,5.52-4.48.82-9.29,4.21-12.18,7.74-5.66,6.93-9.5,15.34-11.02,24.15-1.3,7.58-4.05,14.03-7.77,20.76-18.37,3.37-37.16,11.22-51.51,23.17-2.53,2.1-5.01,4.38-6.58,7.27-4.21,7.75-.47,17.97,6.39,23.51ZM3452.22,1048.95c1.98-12.01,3.39-24.14,5.9-36.05,2.43-11.56,2.22-26.37,1.61-38.16,8.65-3.37,15.65-13.61,18.58-22.42-2.09,13.95-4.19,28.81-8.13,42.35-4.91,16.87-5.79,35.14-5.07,52.69.39,9.46,1.51,19.01-.09,28.34-2.49-10.25-6.85-18.05-12.8-26.76ZM3257.17,490.45c2.5-48.35,6.84-95.53,3.72-143.85-1.03-15.99,2.17-31.96,3.24-47.95.33-4.83,1.14-7.3,2.35-11.99,1.55-6.03,5.32-10.21,11.3-11.96,5.98-1.75,13.22-1.78,19.17-2.38,11.08-.29,31.41.11,42.44,1.22,34.05,3.41,67.44,5.38,101.54,8.3,72.47,6.21,144.63,21.53,220.52,44.42,16.25,4.9,27.27,9.81,43.65,14.27,8.47,2.31,19.11,5.12,27.5,7.73,25.98,8.09,50.1,14.93,72.84,29.87,13.77,9.04,28.27,19.42,40.74,30.19-25.05-12.67-52.72-22.55-80.43-27.08-25.29-4.14-50.58-8.63-76.17-7.41-5.47-.84-11.1.65-16.02,3.18-4.92,2.53-9.91,7.85-14.33,11.18-6.62,4.99-13.77,9.85-21.96,11.13-7.98,1.25-17.9,1.12-24.89-2.94-25.79-15-44.9-26.83-72.29-38.65-10.55-4.56-17.36-7.91-27.5-12.16-7.59-3.18-16.21-6.3-23.89-3.34-6.5,2.5-11.13,8.53-13.59,15.04-2.46,6.51-2.81,14.24-4.17,21.07-.56,2.83-1.13,5.66-1.69,8.48-.52,2.59-1.55,7.1-4.15,7.56-4.73.83-9.51,1.66-14.3,1.45-4.8-.21-11.74-.66-14.37-4.68-1.68-2.56-4.16-4.31-6.95-5.56-3.89-1.74-8.59-.68-12.08,1.76-3.49,2.44-5.48,5.39-6.9,9.41-1.42,4.02-.34,8.91-2.08,12.79-1.16,2.59-6.86,4.32-9.69,4.53-2.83.21-5.26-.84-7.86-1.99-3.57-5.42-10.58-9.02-17.02-9.78-6.2.14-11.84,4.29-14.99,9.63-3.15,5.34-6.57,13.57-6.56,19.77-8.31,10.96-22.74,18.13-36.5,18.16-20.65-2.03-43.02,8.96-50.68,28.25-5.15,12.98-3.38,27.54-1.53,41.38.97,7.26,2.89,10.19,4.12,17.41,1.82,10.76,3.64,21.52,5.46,32.29,5.33,31.51,10.6,64.26,1.95,95.02-1.03,3.66-1.51,7.46-2.91,10.99-1.42-18.64-5.57-38.63-8.44-57.1-6.64-42.84-8.82-84.35-6.58-127.64Z"/>
  <path class="cls-1" d="M1775.62,2114.7c-39.34,85.79-78.28,160.87-156.54,238.68-53.53,53.23-102.52,116.57-150.89,174.52-65.41,78.35-118.48,166.53-165.7,257.01-16.31,31.26-23.77,70.17-18.37,105.01,5.29,34.12,8.01,70.02.49,103.72-3.95,17.69-9.68,43.09-25.66,51.63-27.54,14.71-66.62,15.04-97.83,14.98-31.22-.06-61.98-1.65-92.41-8.64-19.5-4.49-38.91-9.6-58.11-15.25-41.62-12.25-85.7-14.27-128.96-11.05-22.03,1.64-44.12,4.65-65.01,11.84-10.35,3.56-20.37,8.14-30.97,10.92-16.02,4.2-32.82,4.16-49.38,3.65-27.49-.85-59.69-7.74-83.13-22.13,25.35-27.33,49.26-59.33,72.26-88.67,35.94-45.85,72.92-92.66,122.36-123.5,45.41-28.33,98.42-40.2,139.36-74.66,28.57-24.04,53.5-53.77,74.17-84.88,26.28-39.55,53.32-83.06,74.98-125.32,80.91-157.86,146.74-295.71,229.08-443.44,32.24-57.86,73.52-121.55,95.18-184.14,16.21-46.83,39.37-92.62,65.5-134.73,16.26-26.2,29.27-54.17,47.4-79.11,20.1-27.64,38.23-58.05,55.98-87.24,10.88-17.89,24.53-38.18,41.95-49.8,16.72-11.15,36.74-20.53,56.04-26.17,17.65-5.16,36.45-3.99,54.8-2.77,4.73.31,10.91.58,15.6,1.3,21.38,3.29,39.87,6.55,60.66,12.54,29.42,8.48,55.6,21.1,78.97,40.88,70.31,59.49,140.15,124.04,197.16,196.38,79.51,100.89,165.56,196.78,243.49,298.91,61.47,80.55,122.44,161.49,182.9,242.8,57.77,77.69,103.52,155.71,158.71,235.25,23.55,33.94,33.44,70.69,41.17,111.27,7.73,40.58,5.73,84.18-13.05,120.97-28.32,55.46-89.11,86.36-148.77,104.21-21.47,6.42-43.72,11.68-66.08,10.23-23.52-1.53-45.99-10.42-66.79-21.51-58.46-31.17-105.65-79.44-151.83-126.94-138.73-142.69-260.44-295.22-375.37-457.69-38.75-54.78-78.81-108.95-116.4-164.54-4.6-6.8-11.76-13.08-19.2-16.54-7.44-3.46-24.34-5.45-27.76,2.01Z"/>
</svg>