<?xml version="1.0" encoding="UTF-8"?>
<svg id="work_x5F_end_x5F_1" xmlns="http://www.w3.org/2000/svg" viewBox="0 0 196.71 435">
  <path d="M192.76,72.06c-3.79-6.78-11.13-12.37-18.81-11.2,4.01.33,7.16,4.72,6.19,8.62-.97,3.9-5.82,6.3-9.51,4.71-7.58-3.26-4.85-17.36-4.77-23.46.08-6.22-1.12-13.09-5.94-17.01-5.37-4.37-13.13-3.55-19.97-2.5-14.47,2.22-20.9,3.86-29.08-9.32-5.35-8.61-8.87-17.27-19.53-20.4-16.28-4.78-29.31,2.01-35.12,16.47-12.83,31.94,16.11,43.06,26.33,44.76,11.01,1.83,21,3.71,25.67,6.58.77.78,1.44,1.67,2.01,2.65,1.89,3.3,2.9,7.19,3.69,11.08.77,3.91,1.28,7.91,1.71,11.92.86,8.03,1.35,16.15,2.18,24.27.41,4.06.89,8.12,1.54,12.17l.51,3.03c.19,1.03.33,1.97.6,3.09.49,2.16,1.24,4.16,2.04,6.11,3.34,7.69,7.62,14.59,11.5,21.69,3.9,7.08,7.62,14.24,10.43,21.78,1.38,3.77,2.56,7.62,3.34,11.56.47,2.39.78,4.81.94,7.25-.04-.26-.06-.51-.1-.77-.58-3.3-1.29-6.58-2.36-9.75-.47-1.61-1.13-3.14-1.69-4.71-.68-1.52-1.28-3.08-2.03-4.56-2.87-5.99-6.48-11.57-10.49-16.78-.98-1.33-2.04-2.58-3.09-3.84l-3.1-3.74c-1.03-1.23-2.05-2.46-3.01-3.75-.97-1.28-1.98-2.53-2.88-3.85-3.76-5.2-7.13-10.69-10.07-16.41-5.95-11.4-10.15-23.79-12.02-36.64.25,3.23.63,6.47,1.19,9.67.28,1.6.64,3.19.98,4.78.24.92.46,1.85.69,2.77-17.69,6.65-29.74,7.59-45.49,2.1-.17-.32-.36-.63-.52-.96-1.42-2.81-2.41-5.86-2.79-9.02.19,3.18.98,6.32,2.26,9.27,1.27,2.95,3.01,5.68,4.91,8.26,3.81,5.16,8.4,9.67,12.18,14.65,1.87,2.49,3.53,5.14,4.43,7.97.45,1.41.67,2.87.68,4.33-.02,1.46-.26,2.9-.71,4.31-.9,2.81-2.55,5.41-4.47,7.79-.97,1.21-1.97,2.3-3.08,3.51-1.1,1.19-2.16,2.41-3.18,3.68-4.09,5.03-7.58,10.65-10,16.75-2.44,6.09-3.8,12.59-4.34,19.07-1.15,13.02,1.01,25.78.8,38.23-.11,6.22-.76,12.37-2.58,18.2-.92,2.9-2.07,5.73-3.52,8.42-.7,1.35-1.51,2.65-2.33,3.94-.87,1.34-1.75,2.71-2.58,4.09-6.67,11.08-11.54,23.19-14.71,35.64-1.58,6.23-2.8,12.53-3.74,18.86-.91,6.33-1.56,12.68-2.13,19.02-.54,6.34-.96,12.68-1.76,18.96-.4,3.14-.9,6.27-1.68,9.33-.75,3.06-1.78,6.09-3.49,8.78,1.9-2.56,3.17-5.56,4.15-8.6.95-3.06,1.63-6.19,2.2-9.33,1.13-6.29,1.91-12.61,2.76-18.91,1.62-12.59,3.59-25.11,7.03-37.22,1.74-6.04,3.78-11.99,6.25-17.74,2.47-5.76,5.37-11.32,8.65-16.63.82-1.34,1.66-2.63,2.53-3.96.9-1.38,1.77-2.79,2.54-4.25,1.59-2.91,2.86-5.98,3.87-9.13,1.88-5.94,2.66-12.13,2.79-18.23.58-8.5-.04-16.94-.3-25.2-.3-9.18,0-18.3,2.19-27.1.06-.26.12-.52.18-.78,0-.02.01-.05.02-.07.06-.23.13-.46.2-.68,4.71,3.79,10.16,9.43,10.08,15.62-.02,1.14-.05,2.36-.08,3.64,0,.28-.01.56-.02.85-.08,3.05-.19,6.43-.34,9.99-3.47-2.09-6.47-5.04-8.67-8.57,1.79,3.78,4.5,7.18,7.91,9.8.22.17.45.33.68.49-.55,11.74-1.6,25.17-3.58,35.44-3.11-.61-6.05-1.57-8.99-2.87-.62,3.37-1.52,6.71-2.74,9.94-1.14,3.05-2.56,5.99-4.23,8.77-.82,1.41-1.74,2.75-2.56,4.02-.83,1.3-1.64,2.59-2.43,3.92-3.16,5.27-5.94,10.78-8.29,16.47-2.37,5.7-4.32,11.55-5.99,17.52-3.29,11.93-5.19,24.25-6.77,36.63-.85,6.19-1.61,12.41-2.74,18.59-.57,3.09-1.24,6.17-2.19,9.18-.97,2.98-2.22,5.92-4.09,8.44l-1.99.55s-.39,1.66-.66,2.47c.42.27.9.53,1.35.76.72.36,1.46.67,2.23.95,1.54.55,3.16.94,4.83,1.17-1.67.22-3.38.29-5.11.16-.86-.06-1.73-.18-2.6-.34-.7-.14-1.35-.29-2.07-.53-2.2,3.22-2.54,6.84-1,10.18l-.59,5.63h0s-.6,20.45-.6,20.45h10.34l-3.09-22.71c-.27-1.97,1.11-3.79,3.08-4.05,1.97-.27,3.79,1.11,4.05,3.08.04.32.04.66,0,.97l-3.09,22.71h9.82l-.67-26.08c1.85-4.01.7-8.09-2.35-12.15-.28-.37-.98-1.46-1.37-1.89,0,0,.02,0,.02,0l-.2-.76c.03-.08.06-.17.08-.25,3.38-6.86,6.6-13.78,9.78-20.72,1.63-3.5,3.23-7.01,4.81-10.53l4.78-10.53,4.78-10.53,4.72-10.59c3.2-7.07,5.77-14.55,7.97-21.97,2.08-7.19,5.62-13.94,9.42-20.6,3.77-6.69,7.79-13.31,11.51-20.1,7.1-12.85,13.17-26.27,17.93-40.12.31-.2.62-.4.92-.62.91,13.58,2.31,27,2.1,40.4-.09,6.98-.48,13.94-1.27,20.88-.15,1.74-.4,3.47-.63,5.2-.21,1.72-.5,3.49-.77,5.25-.52,3.53-.9,7.08-1.2,10.63-.53,7.11-.69,14.26-.2,21.38.44,7.12,1.48,14.17,2.84,21.14,1.38,6.96,3.12,13.81,4.53,20.71,1.38,6.87,2.3,13.9,1.49,20.93,0,.01,0,.03,0,.04,0,0,0,0,0,0-.17.84-.39,1.66-.66,2.47.42.27.9.53,1.35.76.72.36,1.46.67,2.23.95,1.54.55,3.16.94,4.83,1.17-1.67.22-3.38.29-5.11.16-.86-.06-1.73-.18-2.6-.34-.7-.14-1.35-.29-2.07-.53-2.2,3.22-2.54,6.84-1,10.18l-3.73,26.08h12.88l-3.09-22.71c-.27-1.97,1.11-3.79,3.08-4.05,1.97-.27,3.79,1.11,4.05,3.08.04.32.04.66,0,.97l-3.09,22.71h12.88l-3.73-26.08c1.85-4.01,1-8.42-2.55-12.06-.23-.4-.98-1.59-1.19-2-1.56.53-2.65,1.61-4.3,1.61-2.97,0-5.67-.83-7.98-2.24,2.31,1.4,5.01,2.24,7.98,2.24,1.64,0,2.73-1.08,4.29-1.61-1.23-3-1.99-6.22-2.26-9.48-.27-3.26-.07-6.55.35-9.79.86-6.5,2.54-12.82,4.11-19.1,1.63-6.28,3.2-12.54,4.41-18.87,1.2-6.32,2.09-12.69,2.5-19.08.41-6.39.39-12.81-.05-19.2l-.41-4.78c-.16-1.59-.38-3.18-.57-4.77-.18-1.58-.48-3.16-.71-4.74-.23-1.51-.55-3.37-.6-5.09-.11-3.49.4-6.92,1.24-10.2.83-3.29,2.01-6.43,3.29-9.48,1.48-3.44,3.07-6.77,4.61-10.09-2.08,2.92-6.66,6.59-13.63,9-.08-6.06-.3-16.84-.98-28.5.87-.09,1.73-.23,2.58-.39,3.33-.7,6.55-1.85,9.35-3.65-3.23.76-6.43,1.19-9.61,1.18-.84.02-1.67,0-2.5-.06-.53-8.24-1.29-16.74-2.4-24.21,0,0,0-.01,0-.02-.03-.22-1.1-6.63-1.64-9.06-.4-9.46,5.3-17.97,13.21-22.63.14.2.28.39.42.59.14.2.28.39.42.59,3.28,4.68,6.2,9.59,8.59,14.73.7,1.42,1.23,2.91,1.86,4.36.5,1.49,1.11,2.96,1.52,4.47.97,3,1.58,6.09,2.07,9.18.87,6.2.81,12.52-.31,18.71-1.06,6.2-3.07,12.22-5.56,18.1-.67,1.63-1.39,3.25-2.13,4.86,0,0,0-.01,0-.02-.42.93-.85,1.85-1.28,2.78,0,0,0,0,0-.01-1.55,3.32-3.14,6.66-4.61,10.1-1.29,3.05-2.47,6.19-3.3,9.48-.84,3.28-1.36,6.71-1.24,10.2.05,1.73.36,3.58.6,5.08.24,1.58.53,3.16.72,4.75.19,1.59.41,3.18.57,4.77l.41,4.78c.43,6.39.46,12.8.05,19.2-.41,6.4-1.3,12.76-2.49,19.08-1.21,6.32-2.78,12.59-4.41,18.86-1.57,6.29-3.25,12.61-4.11,19.1-.42,3.24-.61,6.53-.35,9.8.28,3.26,1.03,6.48,2.27,9.48-2.1-6.19-1.94-12.81-.78-19.1,1.16-6.33,3.13-12.5,5.02-18.7,1.88-6.21,3.68-12.48,5.15-18.85,1.45-6.38,2.48-12.87,3.08-19.4.61-6.54.74-13.13.37-19.69l-.35-4.92c-.14-1.64-.34-3.27-.51-4.9-.17-1.63-.44-3.25-.66-4.88-.24-1.7-.44-3.06-.48-4.58-.1-6.02,1.82-12.1,4.33-17.89,2.53-5.84,5.57-11.62,8.11-17.71,2.54-6.08,4.64-12.44,5.73-19.05.82-4.76,1.09-9.63.78-14.46h.02c.5-4.06.4-8.19-.12-12.26-.52-4.08-1.43-8.11-2.65-12.03-2.42-7.87-5.9-15.34-9.57-22.62l-5.59-10.84c-1.86-3.59-3.66-7.19-5.13-10.84-.71-1.82-1.32-3.66-1.71-5.47-.2-.86-.34-1.93-.5-2.9l-.44-2.99c-.58-3.99-1.12-7.99-1.64-12l-1.49-12.07c-.25-2.06-.49-4.13-.75-6.2.11.17.21.34.33.5,7.58,10.81,18.4,19.77,31.68,22.17,13.44,2.43,28.18-2.35,36.96-12.81,8.78-10.46,10.81-26.39,4.14-38.31ZM72.77,141.47c-4-4.78-8.54-8.9-12.42-13.58,4.83,1.12,9.36,1.64,14.2,1.64,8.75,0,17.71-1.87,27.77-5.61,1.57,5.03,3.45,9.97,5.66,14.77,1.75,3.76,3.71,7.41,5.82,10.98.13.21.25.43.38.64.13.21.25.43.38.64-5.56,5.24-18.64,11.8-31.29,11.8-1.98,0-3.94-.17-5.87-.52.09-.23.18-.46.27-.69.08-.23.16-.46.24-.69.09-.28.19-.55.27-.83.46-1.64.7-3.37.66-5.09-.06-1.72-.39-3.43-.96-5.03-1.13-3.21-3.06-5.94-5.11-8.43ZM89.99,246.74c-2.84,5.48-5.83,10.88-8.96,16.2-5.41.83-10.01.96-14.21.46,1.93-10,2.98-22.74,3.55-34.1,2.57,1.41,5.38,2.43,8.31,2.95,4.34.79,8.91.55,13.25-.77,2.39-.71,4.69-1.78,6.83-3.12-2.76,6.22-5.67,12.35-8.77,18.38ZM118.76,260.07c-3.74,1-8.05,1.63-12.92,1.64-.63-11.65-2.71-23.13-5.58-34.35.44-.31.87-.64,1.29-.98.24.15.43.28.55.35.25.16.48.27.7.35,3.18,1.7,6.63,2.84,10.12,3.41,1.59.26,3.21.38,4.83.36.71,12.16.94,23.4,1.01,29.21ZM114.22,198c.1.54.21,1.1.31,1.66,1.43,8.09,2.38,18.07,3.01,27.75-1.27-.21-2.53-.47-3.77-.82-3.28-.94-6.41-2.33-9.23-4.13-5.96-7.48-4.31-19.73.59-31.12-3.31-1.66-7.01-2.57-10.9-2.57-.63,0-1.25.02-1.89.07-.71.05-1.42.14-2.13.25-6.72,1.07-13.26,4.98-16.27,13.1,7.12,9.04,16.96,16.75,22.97,21.03-1.9,1.71-4.08,3.15-6.47,4.18-3.51,1.54-7.46,2.23-11.41,1.98-2.92-.18-5.84-.9-8.57-2.11.22-4.8.36-9.3.44-13.18.01-.63.03-1.24.04-1.83.02-1.19.04-2.31.05-3.35.31-2.98.98-5.66,1.95-8.02,3.28-7.91,9.97-12.34,17.84-13.33.59-.07,1.18-.13,1.77-.17.55-.03,1.11-.07,1.67-.07,4.18,0,8.06.97,11.48,2.68,3.16,1.58,5.93,3.8,8.2,6.47.1.49.2,1,.3,1.51Z"/>
  <polygon points="6.83 419.44 6.83 419.44 6.21 420.87 0 435 5.21 435 6.83 419.44 6.83 419.44"/>
</svg>